{"asset":{"version":"2.0","generator":"babylon.js glTF exporter for 3dsmax 2 v20211112.3"},"scene":0,"scenes":[{"nodes":[0,1,2,3,4,5,6,7,8,9,10,11,12,13,14,15,16,17,18,19,20,21,22,23,24,25,26,27,28,29,30,31,32,33,34,35,36,37,38]}],"nodes":[{"mesh":0,"translation":[-1.45452023,0.0,1.90316641],"scale":[30.48,30.48,30.48],"name":" Sweep [1413]"},{"mesh":1,"translation":[-1.45452023,0.0,1.90316641],"scale":[30.48,30.48,30.48],"name":" Sweep [1705]"},{"mesh":2,"translation":[-1.45452023,0.0,1.90316641],"scale":[30.48,30.48,30.48],"name":" Sweep [1728]"},{"mesh":3,"translation":[-1.45452023,0.0,1.90316641],"scale":[30.48,30.48,30.48],"name":" Sweep [1747]"},{"mesh":4,"translation":[-1.45452023,0.0,1.90316641],"scale":[30.48,30.48,30.48],"name":" Extrusion [1766]"},{"mesh":5,"translation":[-1.45452023,0.0,1.90316641],"scale":[30.48,30.48,30.48],"name":" Extrusion [1771]"},{"mesh":6,"translation":[-1.45452023,0.0,1.90316641],"scale":[30.48,30.48,30.48],"name":" Extrusion [1776]"},{"mesh":7,"translation":[-1.45452023,0.0,1.90316641],"scale":[30.48,30.48,30.48],"name":" Extrusion [1781]"},{"mesh":8,"translation":[-1.45452023,0.0,1.90316641],"scale":[30.48,30.48,30.48],"name":" Revolve [1785]"},{"mesh":9,"translation":[-1.45452023,0.0,1.90316641],"scale":[30.48,30.48,30.48],"name":" Revolve [1796]"},{"mesh":10,"translation":[-1.45452023,0.0,1.90316641],"scale":[30.48,30.48,30.48],"name":" Extrusion [1808]"},{"mesh":11,"translation":[-1.45452023,0.0,1.90316641],"scale":[30.48,30.48,30.48],"name":" Revolve [1812]"},{"mesh":12,"translation":[-1.45452023,0.0,1.90316641],"scale":[30.48,30.48,30.48],"name":" Revolve [1823]"},{"mesh":13,"translation":[-1.45452023,0.0,1.90316641],"scale":[30.48,30.48,30.48],"name":" Extrusion [1835]"},{"mesh":14,"translation":[-1.45452023,0.0,1.90316641],"scale":[30.48,30.48,30.48],"name":" Revolve [1839]"},{"mesh":15,"translation":[-1.45452023,0.0,1.90316641],"scale":[30.48,30.48,30.48],"name":" Revolve [1850]"},{"mesh":16,"translation":[-1.45452023,0.0,1.90316641],"scale":[30.48,30.48,30.48],"name":" Extrusion [1862]"},{"mesh":17,"translation":[-1.45452023,0.0,1.90316641],"scale":[30.48,30.48,30.48],"name":" Revolve [1866]"},{"mesh":18,"translation":[-1.45452023,0.0,1.90316641],"scale":[30.48,30.48,30.48],"name":" Revolve [1877]"},{"mesh":19,"translation":[-1.45452023,0.0,1.90316641],"scale":[30.48,30.48,30.48],"name":" Extrusion [1889]"},{"mesh":20,"translation":[-1.45452023,0.0,1.90316641],"scale":[30.48,30.48,30.48],"name":" Revolve [1893]"},{"mesh":21,"translation":[-1.45452023,0.0,1.90316641],"scale":[30.48,30.48,30.48],"name":" Extrusion [1905]"},{"mesh":22,"translation":[-1.45452023,0.0,1.90316641],"scale":[30.48,30.48,30.48],"name":" Revolve [1909]"},{"mesh":23,"translation":[-1.45452023,0.0,1.90316641],"scale":[30.48,30.48,30.48],"name":" Revolve [1920]"},{"mesh":24,"translation":[-1.45452023,0.0,1.90316641],"scale":[30.48,30.48,30.48],"name":" Extrusion [1932]"},{"mesh":25,"translation":[-1.45452023,0.0,1.90316641],"scale":[30.48,30.48,30.48],"name":" Revolve [1936]"},{"mesh":26,"translation":[-1.45452023,0.0,1.90316641],"scale":[30.48,30.48,30.48],"name":" Revolve [1947]"},{"mesh":27,"translation":[-1.45452023,0.0,1.90316641],"scale":[30.48,30.48,30.48],"name":" Extrusion [1959]"},{"mesh":28,"translation":[-1.45452023,0.0,1.90316641],"scale":[30.48,30.48,30.48],"name":" Revolve [1963]"},{"mesh":29,"translation":[-1.45452023,0.0,1.90316641],"scale":[30.48,30.48,30.48],"name":" Revolve [1974]"},{"mesh":30,"translation":[-1.45452023,0.0,1.90316641],"scale":[30.48,30.48,30.48],"name":" Extrusion [1986]"},{"mesh":31,"translation":[-1.45452023,0.0,1.90316641],"scale":[30.48,30.48,30.48],"name":" Revolve [1990]"},{"mesh":32,"translation":[-1.45452023,0.0,1.90316641],"scale":[30.48,30.48,30.48],"name":" Revolve [2001]"},{"mesh":33,"translation":[-1.45452023,0.0,1.90316641],"scale":[30.48,30.48,30.48],"name":" Extrusion [2013]"},{"mesh":34,"translation":[-1.45452023,0.0,1.90316641],"scale":[30.48,30.48,30.48],"name":" Revolve [2017]"},{"mesh":35,"translation":[-1.45452023,0.0,1.90316641],"scale":[30.48,30.48,30.48],"name":" Revolve [2028]"},{"mesh":36,"translation":[-1.45452023,0.0,1.90316641],"scale":[30.48,30.48,30.48],"name":" Extrusion [2040]"},{"mesh":37,"translation":[-1.45452023,0.0,1.90316641],"scale":[30.48,30.48,30.48],"name":" Revolve [2044]"},{"mesh":38,"translation":[-0.4912003,0.0,0.371483475],"name":"Box001"}],"meshes":[{"primitives":[{"attributes":{"POSITION":1,"NORMAL":2,"TEXCOORD_0":3},"indices":0,"material":0}],"name":" Sweep [1413]"},{"primitives":[{"attributes":{"POSITION":5,"NORMAL":6,"TEXCOORD_0":7},"indices":4,"material":0}],"name":" Sweep [1705]"},{"primitives":[{"attributes":{"POSITION":9,"NORMAL":10,"TEXCOORD_0":11},"indices":8,"material":0}],"name":" Sweep [1728]"},{"primitives":[{"attributes":{"POSITION":13,"NORMAL":14,"TEXCOORD_0":15},"indices":12,"material":0}],"name":" Sweep [1747]"},{"primitives":[{"attributes":{"POSITION":17,"NORMAL":18,"TEXCOORD_0":19},"indices":16,"material":0}],"name":" Extrusion [1766]"},{"primitives":[{"attributes":{"POSITION":21,"NORMAL":22,"TEXCOORD_0":23},"indices":20,"material":0}],"name":" Extrusion [1771]"},{"primitives":[{"attributes":{"POSITION":25,"NORMAL":26,"TEXCOORD_0":27},"indices":24,"material":0}],"name":" Extrusion [1776]"},{"primitives":[{"attributes":{"POSITION":29,"NORMAL":30,"TEXCOORD_0":31},"indices":28,"material":0}],"name":" Extrusion [1781]"},{"primitives":[{"attributes":{"POSITION":33,"NORMAL":34,"TEXCOORD_0":35},"indices":32,"material":1}],"name":" Revolve [1785]"},{"primitives":[{"attributes":{"POSITION":37,"NORMAL":38,"TEXCOORD_0":39},"indices":36,"material":1}],"name":" Revolve [1796]"},{"primitives":[{"attributes":{"POSITION":41,"NORMAL":42,"TEXCOORD_0":43},"indices":40,"material":2}],"name":" Extrusion [1808]"},{"primitives":[{"attributes":{"POSITION":45,"NORMAL":46,"TEXCOORD_0":47},"indices":44,"material":1}],"name":" Revolve [1812]"},{"primitives":[{"attributes":{"POSITION":49,"NORMAL":50,"TEXCOORD_0":51},"indices":48,"material":1}],"name":" Revolve [1823]"},{"primitives":[{"attributes":{"POSITION":53,"NORMAL":54,"TEXCOORD_0":55},"indices":52,"material":2}],"name":" Extrusion [1835]"},{"primitives":[{"attributes":{"POSITION":57,"NORMAL":58,"TEXCOORD_0":59},"indices":56,"material":1}],"name":" Revolve [1839]"},{"primitives":[{"attributes":{"POSITION":61,"NORMAL":62,"TEXCOORD_0":63},"indices":60,"material":1}],"name":" Revolve [1850]"},{"primitives":[{"attributes":{"POSITION":65,"NORMAL":66,"TEXCOORD_0":67},"indices":64,"material":2}],"name":" Extrusion [1862]"},{"primitives":[{"attributes":{"POSITION":69,"NORMAL":70,"TEXCOORD_0":71},"indices":68,"material":1}],"name":" Revolve [1866]"},{"primitives":[{"attributes":{"POSITION":73,"NORMAL":74,"TEXCOORD_0":75},"indices":72,"material":1}],"name":" Revolve [1877]"},{"primitives":[{"attributes":{"POSITION":77,"NORMAL":78,"TEXCOORD_0":79},"indices":76,"material":2}],"name":" Extrusion [1889]"},{"primitives":[{"attributes":{"POSITION":81,"NORMAL":82,"TEXCOORD_0":83},"indices":80,"material":1}],"name":" Revolve [1893]"},{"primitives":[{"attributes":{"POSITION":85,"NORMAL":86,"TEXCOORD_0":87},"indices":84,"material":2}],"name":" Extrusion [1905]"},{"primitives":[{"attributes":{"POSITION":89,"NORMAL":90,"TEXCOORD_0":91},"indices":88,"material":1}],"name":" Revolve [1909]"},{"primitives":[{"attributes":{"POSITION":93,"NORMAL":94,"TEXCOORD_0":95},"indices":92,"material":1}],"name":" Revolve [1920]"},{"primitives":[{"attributes":{"POSITION":97,"NORMAL":98,"TEXCOORD_0":99},"indices":96,"material":2}],"name":" Extrusion [1932]"},{"primitives":[{"attributes":{"POSITION":101,"NORMAL":102,"TEXCOORD_0":103},"indices":100,"material":1}],"name":" Revolve [1936]"},{"primitives":[{"attributes":{"POSITION":105,"NORMAL":106,"TEXCOORD_0":107},"indices":104,"material":1}],"name":" Revolve [1947]"},{"primitives":[{"attributes":{"POSITION":109,"NORMAL":110,"TEXCOORD_0":111},"indices":108,"material":2}],"name":" Extrusion [1959]"},{"primitives":[{"attributes":{"POSITION":113,"NORMAL":114,"TEXCOORD_0":115},"indices":112,"material":1}],"name":" Revolve [1963]"},{"primitives":[{"attributes":{"POSITION":117,"NORMAL":118,"TEXCOORD_0":119},"indices":116,"material":1}],"name":" Revolve [1974]"},{"primitives":[{"attributes":{"POSITION":121,"NORMAL":122,"TEXCOORD_0":123},"indices":120,"material":2}],"name":" Extrusion [1986]"},{"primitives":[{"attributes":{"POSITION":125,"NORMAL":126,"TEXCOORD_0":127},"indices":124,"material":1}],"name":" Revolve [1990]"},{"primitives":[{"attributes":{"POSITION":129,"NORMAL":130,"TEXCOORD_0":131},"indices":128,"material":1}],"name":" Revolve [2001]"},{"primitives":[{"attributes":{"POSITION":133,"NORMAL":134,"TEXCOORD_0":135},"indices":132,"material":2}],"name":" Extrusion [2013]"},{"primitives":[{"attributes":{"POSITION":137,"NORMAL":138,"TEXCOORD_0":139},"indices":136,"material":1}],"name":" Revolve [2017]"},{"primitives":[{"attributes":{"POSITION":141,"NORMAL":142,"TEXCOORD_0":143},"indices":140,"material":1}],"name":" Revolve [2028]"},{"primitives":[{"attributes":{"POSITION":145,"NORMAL":146,"TEXCOORD_0":147},"indices":144,"material":2}],"name":" Extrusion [2040]"},{"primitives":[{"attributes":{"POSITION":149,"NORMAL":150,"TEXCOORD_0":151},"indices":148,"material":1}],"name":" Revolve [2044]"},{"primitives":[{"attributes":{"POSITION":153,"NORMAL":154,"TEXCOORD_0":155},"indices":152,"material":3}],"name":"Box001"}],"accessors":[{"bufferView":0,"componentType":5123,"count":1953,"type":"SCALAR","name":"accessorIndices"},{"bufferView":1,"componentType":5126,"count":653,"max":[0.0116666658,0.0305049177,-0.04036483],"min":[0.009583333,-0.000772349071,-0.05945479],"type":"VEC3","name":"accessorPositions"},{"bufferView":1,"byteOffset":7836,"componentType":5126,"count":653,"type":"VEC3","name":"accessorNormals"},{"bufferView":2,"componentType":5126,"count":653,"type":"VEC2","name":"accessorUVs"},{"bufferView":0,"byteOffset":3908,"componentType":5123,"count":1026,"type":"SCALAR","name":"accessorIndices"},{"bufferView":1,"byteOffset":15672,"componentType":5126,"count":315,"max":[0.0116666658,0.0160703883,-0.0403989479],"min":[0.009583333,0.00797263347,-0.0515915379],"type":"VEC3","name":"accessorPositions"},{"bufferView":1,"byteOffset":19452,"componentType":5126,"count":315,"type":"VEC3","name":"accessorNormals"},{"bufferView":2,"byteOffset":5224,"componentType":5126,"count":315,"type":"VEC2","name":"accessorUVs"},{"bufferView":0,"byteOffset":5960,"componentType":5123,"count":1953,"type":"SCALAR","name":"accessorIndices"},{"bufferView":1,"byteOffset":23232,"componentType":5126,"count":653,"max":[0.055,0.0305049177,-0.04036483],"min":[0.0529166646,-0.000772349071,-0.05945479],"type":"VEC3","name":"accessorPositions"},{"bufferView":1,"byteOffset":31068,"componentType":5126,"count":653,"type":"VEC3","name":"accessorNormals"},{"bufferView":2,"byteOffset":7744,"componentType":5126,"count":653,"type":"VEC2","name":"accessorUVs"},{"bufferView":0,"byteOffset":9868,"componentType":5123,"count":1026,"type":"SCALAR","name":"accessorIndices"},{"bufferView":1,"byteOffset":38904,"componentType":5126,"count":315,"max":[0.055,0.0160703883,-0.0403989479],"min":[0.0529166646,0.00797263347,-0.0515915379],"type":"VEC3","name":"accessorPositions"},{"bufferView":1,"byteOffset":42684,"componentType":5126,"count":315,"type":"VEC3","name":"accessorNormals"},{"bufferView":2,"byteOffset":12968,"componentType":5126,"count":315,"type":"VEC2","name":"accessorUVs"},{"bufferView":0,"byteOffset":11920,"componentType":5123,"count":1752,"type":"SCALAR","name":"accessorIndices"},{"bufferView":1,"byteOffset":46464,"componentType":5126,"count":352,"max":[0.0529166646,0.0123207308,-0.0417133644],"min":[0.0116666658,0.0106540639,-0.04338003],"type":"VEC3","name":"accessorPositions"},{"bufferView":1,"byteOffset":50688,"componentType":5126,"count":352,"type":"VEC3","name":"accessorNormals"},{"bufferView":2,"byteOffset":15488,"componentType":5126,"count":352,"type":"VEC2","name":"accessorUVs"},{"bufferView":0,"byteOffset":15424,"componentType":5123,"count":1752,"type":"SCALAR","name":"accessorIndices"},{"bufferView":1,"byteOffset":54912,"componentType":5126,"count":352,"max":[0.0529166646,0.0160638224,-0.0502022244],"min":[0.0116666658,0.0143971555,-0.05186889],"type":"VEC3","name":"accessorPositions"},{"bufferView":1,"byteOffset":59136,"componentType":5126,"count":352,"type":"VEC3","name":"accessorNormals"},{"bufferView":2,"byteOffset":18304,"componentType":5126,"count":352,"type":"VEC2","name":"accessorUVs"},{"bufferView":0,"byteOffset":18928,"componentType":5123,"count":1752,"type":"SCALAR","name":"accessorIndices"},{"bufferView":1,"byteOffset":63360,"componentType":5126,"count":352,"max":[0.0529166646,0.0304094944,-0.0580963939],"min":[0.0116666658,0.02874283,-0.05976306],"type":"VEC3","name":"accessorPositions"},{"bufferView":1,"byteOffset":67584,"componentType":5126,"count":352,"type":"VEC3","name":"accessorNormals"},{"bufferView":2,"byteOffset":21120,"componentType":5126,"count":352,"type":"VEC2","name":"accessorUVs"},{"bufferView":0,"byteOffset":22432,"componentType":5123,"count":1752,"type":"SCALAR","name":"accessorIndices"},{"bufferView":1,"byteOffset":71808,"componentType":5126,"count":352,"max":[0.0529166646,0.0270141829,-0.04822095],"min":[0.0116666658,0.0253475178,-0.0498876236],"type":"VEC3","name":"accessorPositions"},{"bufferView":1,"byteOffset":76032,"componentType":5126,"count":352,"type":"VEC3","name":"accessorNormals"},{"bufferView":2,"byteOffset":23936,"componentType":5126,"count":352,"type":"VEC2","name":"accessorUVs"},{"bufferView":0,"byteOffset":25936,"componentType":5123,"count":696,"type":"SCALAR","name":"accessorIndices"},{"bufferView":1,"byteOffset":80256,"componentType":5126,"count":240,"max":[0.0540737845,0.02304554,-0.0471035764],"min":[0.04574045,0.0143675311,-0.054176487],"type":"VEC3","name":"accessorPositions"},{"bufferView":1,"byteOffset":83136,"componentType":5126,"count":240,"type":"VEC3","name":"accessorNormals"},{"bufferView":2,"byteOffset":26752,"componentType":5126,"count":240,"type":"VEC2","name":"accessorUVs"},{"bufferView":0,"byteOffset":27328,"componentType":5123,"count":696,"type":"SCALAR","name":"accessorIndices"},{"bufferView":1,"byteOffset":86016,"componentType":5126,"count":240,"max":[0.0540737845,0.0204904024,-0.03705798],"min":[0.04574045,0.0118123945,-0.04413089],"type":"VEC3","name":"accessorPositions"},{"bufferView":1,"byteOffset":88896,"componentType":5126,"count":240,"type":"VEC3","name":"accessorNormals"},{"bufferView":2,"byteOffset":28672,"componentType":5126,"count":240,"type":"VEC2","name":"accessorUVs"},{"bufferView":0,"byteOffset":28720,"componentType":5123,"count":204,"type":"SCALAR","name":"accessorIndices"},{"bufferView":1,"byteOffset":91776,"componentType":5126,"count":67,"max":[0.050351236,0.0186175369,-0.0427499823],"min":[0.0495179072,0.01604226,-0.0485488661],"type":"VEC3","name":"accessorPositions"},{"bufferView":1,"byteOffset":92580,"componentType":5126,"count":67,"type":"VEC3","name":"accessorNormals"},{"bufferView":2,"byteOffset":30592,"componentType":5126,"count":67,"type":"VEC2","name":"accessorUVs"},{"bufferView":0,"byteOffset":29128,"componentType":5123,"count":696,"type":"SCALAR","name":"accessorIndices"},{"bufferView":1,"byteOffset":93384,"componentType":5126,"count":240,"max":[0.04490712,0.02304554,-0.0471035764],"min":[0.0365737863,0.0143675311,-0.054176487],"type":"VEC3","name":"accessorPositions"},{"bufferView":1,"byteOffset":96264,"componentType":5126,"count":240,"type":"VEC3","name":"accessorNormals"},{"bufferView":2,"byteOffset":31128,"componentType":5126,"count":240,"type":"VEC2","name":"accessorUVs"},{"bufferView":0,"byteOffset":30520,"componentType":5123,"count":696,"type":"SCALAR","name":"accessorIndices"},{"bufferView":1,"byteOffset":99144,"componentType":5126,"count":240,"max":[0.04490712,0.0204904024,-0.03705798],"min":[0.0365737863,0.0118123945,-0.04413089],"type":"VEC3","name":"accessorPositions"},{"bufferView":1,"byteOffset":102024,"componentType":5126,"count":240,"type":"VEC3","name":"accessorNormals"},{"bufferView":2,"byteOffset":33048,"componentType":5126,"count":240,"type":"VEC2","name":"accessorUVs"},{"bufferView":0,"byteOffset":31912,"componentType":5123,"count":204,"type":"SCALAR","name":"accessorIndices"},{"bufferView":1,"byteOffset":104904,"componentType":5126,"count":67,"max":[0.04118457,0.0186175369,-0.0427499823],"min":[0.0403512381,0.01604226,-0.0485488661],"type":"VEC3","name":"accessorPositions"},{"bufferView":1,"byteOffset":105708,"componentType":5126,"count":67,"type":"VEC3","name":"accessorNormals"},{"bufferView":2,"byteOffset":34968,"componentType":5126,"count":67,"type":"VEC2","name":"accessorUVs"},{"bufferView":0,"byteOffset":32320,"componentType":5123,"count":696,"type":"SCALAR","name":"accessorIndices"},{"bufferView":1,"byteOffset":106512,"componentType":5126,"count":240,"max":[0.0355321169,0.02304554,-0.0471035764],"min":[0.0271987859,0.0143675311,-0.054176487],"type":"VEC3","name":"accessorPositions"},{"bufferView":1,"byteOffset":109392,"componentType":5126,"count":240,"type":"VEC3","name":"accessorNormals"},{"bufferView":2,"byteOffset":35504,"componentType":5126,"count":240,"type":"VEC2","name":"accessorUVs"},{"bufferView":0,"byteOffset":33712,"componentType":5123,"count":696,"type":"SCALAR","name":"accessorIndices"},{"bufferView":1,"byteOffset":112272,"componentType":5126,"count":240,"max":[0.0355321169,0.0204904024,-0.03705798],"min":[0.0271987859,0.0118123945,-0.04413089],"type":"VEC3","name":"accessorPositions"},{"bufferView":1,"byteOffset":115152,"componentType":5126,"count":240,"type":"VEC3","name":"accessorNormals"},{"bufferView":2,"byteOffset":37424,"componentType":5126,"count":240,"type":"VEC2","name":"accessorUVs"},{"bufferView":0,"byteOffset":35104,"componentType":5123,"count":204,"type":"SCALAR","name":"accessorIndices"},{"bufferView":1,"byteOffset":118032,"componentType":5126,"count":67,"max":[0.0318095721,0.0186175369,-0.0427499823],"min":[0.03097624,0.01604226,-0.0485488661],"type":"VEC3","name":"accessorPositions"},{"bufferView":1,"byteOffset":118836,"componentType":5126,"count":67,"type":"VEC3","name":"accessorNormals"},{"bufferView":2,"byteOffset":39344,"componentType":5126,"count":67,"type":"VEC2","name":"accessorUVs"},{"bufferView":0,"byteOffset":35512,"componentType":5123,"count":696,"type":"SCALAR","name":"accessorIndices"},{"bufferView":1,"byteOffset":119640,"componentType":5126,"count":240,"max":[0.0261571184,0.02304554,-0.0471035764],"min":[0.0178237855,0.0143675311,-0.054176487],"type":"VEC3","name":"accessorPositions"},{"bufferView":1,"byteOffset":122520,"componentType":5126,"count":240,"type":"VEC3","name":"accessorNormals"},{"bufferView":2,"byteOffset":39880,"componentType":5126,"count":240,"type":"VEC2","name":"accessorUVs"},{"bufferView":0,"byteOffset":36904,"componentType":5123,"count":696,"type":"SCALAR","name":"accessorIndices"},{"bufferView":1,"byteOffset":125400,"componentType":5126,"count":240,"max":[0.0261571184,0.0204904024,-0.03705798],"min":[0.0178237855,0.0118123945,-0.04413089],"type":"VEC3","name":"accessorPositions"},{"bufferView":1,"byteOffset":128280,"componentType":5126,"count":240,"type":"VEC3","name":"accessorNormals"},{"bufferView":2,"byteOffset":41800,"componentType":5126,"count":240,"type":"VEC2","name":"accessorUVs"},{"bufferView":0,"byteOffset":38296,"componentType":5123,"count":204,"type":"SCALAR","name":"accessorIndices"},{"bufferView":1,"byteOffset":131160,"componentType":5126,"count":67,"max":[0.0224345718,0.0186175369,-0.0427499823],"min":[0.0216012411,0.01604226,-0.0485488661],"type":"VEC3","name":"accessorPositions"},{"bufferView":1,"byteOffset":131964,"componentType":5126,"count":67,"type":"VEC3","name":"accessorNormals"},{"bufferView":2,"byteOffset":43720,"componentType":5126,"count":67,"type":"VEC2","name":"accessorUVs"},{"bufferView":0,"byteOffset":38704,"componentType":5123,"count":828,"type":"SCALAR","name":"accessorIndices"},{"bufferView":1,"byteOffset":132768,"componentType":5126,"count":284,"max":[0.0191480145,0.0337821469,-0.05527509],"min":[0.0141480146,0.02863129,-0.0594275221],"type":"VEC3","name":"accessorPositions"},{"bufferView":1,"byteOffset":136176,"componentType":5126,"count":284,"type":"VEC3","name":"accessorNormals"},{"bufferView":2,"byteOffset":44256,"componentType":5126,"count":284,"type":"VEC2","name":"accessorUVs"},{"bufferView":0,"byteOffset":40360,"componentType":5123,"count":204,"type":"SCALAR","name":"accessorIndices"},{"bufferView":1,"byteOffset":139584,"componentType":5126,"count":67,"max":[0.0170921367,0.0313248,-0.05027357],"min":[0.0162588023,0.0289359465,-0.05610487],"type":"VEC3","name":"accessorPositions"},{"bufferView":1,"byteOffset":140388,"componentType":5126,"count":67,"type":"VEC3","name":"accessorNormals"},{"bufferView":2,"byteOffset":46528,"componentType":5126,"count":67,"type":"VEC2","name":"accessorUVs"},{"bufferView":0,"byteOffset":40768,"componentType":5123,"count":828,"type":"SCALAR","name":"accessorIndices"},{"bufferView":1,"byteOffset":141192,"componentType":5126,"count":284,"max":[0.0191480145,0.0318297148,-0.0468934849],"min":[0.0141480146,0.02667886,-0.05104592],"type":"VEC3","name":"accessorPositions"},{"bufferView":1,"byteOffset":144600,"componentType":5126,"count":284,"type":"VEC3","name":"accessorNormals"},{"bufferView":2,"byteOffset":47064,"componentType":5126,"count":284,"type":"VEC2","name":"accessorUVs"},{"bufferView":0,"byteOffset":42424,"componentType":5123,"count":828,"type":"SCALAR","name":"accessorIndices"},{"bufferView":1,"byteOffset":148008,"componentType":5126,"count":284,"max":[0.0243563484,0.0337821469,-0.05527509],"min":[0.0193563476,0.02863129,-0.0594275221],"type":"VEC3","name":"accessorPositions"},{"bufferView":1,"byteOffset":151416,"componentType":5126,"count":284,"type":"VEC3","name":"accessorNormals"},{"bufferView":2,"byteOffset":49336,"componentType":5126,"count":284,"type":"VEC2","name":"accessorUVs"},{"bufferView":0,"byteOffset":44080,"componentType":5123,"count":204,"type":"SCALAR","name":"accessorIndices"},{"bufferView":1,"byteOffset":154824,"componentType":5126,"count":67,"max":[0.0223004688,0.0313248,-0.05027357],"min":[0.0214671344,0.0289359465,-0.05610487],"type":"VEC3","name":"accessorPositions"},{"bufferView":1,"byteOffset":155628,"componentType":5126,"count":67,"type":"VEC3","name":"accessorNormals"},{"bufferView":2,"byteOffset":51608,"componentType":5126,"count":67,"type":"VEC2","name":"accessorUVs"},{"bufferView":0,"byteOffset":44488,"componentType":5123,"count":828,"type":"SCALAR","name":"accessorIndices"},{"bufferView":1,"byteOffset":156432,"componentType":5126,"count":284,"max":[0.0243563484,0.0318297148,-0.0468934849],"min":[0.0193563476,0.02667886,-0.05104592],"type":"VEC3","name":"accessorPositions"},{"bufferView":1,"byteOffset":159840,"componentType":5126,"count":284,"type":"VEC3","name":"accessorNormals"},{"bufferView":2,"byteOffset":52144,"componentType":5126,"count":284,"type":"VEC2","name":"accessorUVs"},{"bufferView":0,"byteOffset":46144,"componentType":5123,"count":828,"type":"SCALAR","name":"accessorIndices"},{"bufferView":1,"byteOffset":163248,"componentType":5126,"count":284,"max":[0.0318563469,0.0337821469,-0.05527509],"min":[0.0268563479,0.02863129,-0.0594275221],"type":"VEC3","name":"accessorPositions"},{"bufferView":1,"byteOffset":166656,"componentType":5126,"count":284,"type":"VEC3","name":"accessorNormals"},{"bufferView":2,"byteOffset":54416,"componentType":5126,"count":284,"type":"VEC2","name":"accessorUVs"},{"bufferView":0,"byteOffset":47800,"componentType":5123,"count":204,"type":"SCALAR","name":"accessorIndices"},{"bufferView":1,"byteOffset":170064,"componentType":5126,"count":67,"max":[0.0298004691,0.0313248,-0.05027357],"min":[0.0289671347,0.0289359465,-0.05610487],"type":"VEC3","name":"accessorPositions"},{"bufferView":1,"byteOffset":170868,"componentType":5126,"count":67,"type":"VEC3","name":"accessorNormals"},{"bufferView":2,"byteOffset":56688,"componentType":5126,"count":67,"type":"VEC2","name":"accessorUVs"},{"bufferView":0,"byteOffset":48208,"componentType":5123,"count":828,"type":"SCALAR","name":"accessorIndices"},{"bufferView":1,"byteOffset":171672,"componentType":5126,"count":284,"max":[0.0318563469,0.0318297148,-0.0468934849],"min":[0.0268563479,0.02667886,-0.05104592],"type":"VEC3","name":"accessorPositions"},{"bufferView":1,"byteOffset":175080,"componentType":5126,"count":284,"type":"VEC3","name":"accessorNormals"},{"bufferView":2,"byteOffset":57224,"componentType":5126,"count":284,"type":"VEC2","name":"accessorUVs"},{"bufferView":0,"byteOffset":49864,"componentType":5123,"count":828,"type":"SCALAR","name":"accessorIndices"},{"bufferView":1,"byteOffset":178488,"componentType":5126,"count":284,"max":[0.0372730158,0.0337821469,-0.05527509],"min":[0.0322730169,0.02863129,-0.0594275221],"type":"VEC3","name":"accessorPositions"},{"bufferView":1,"byteOffset":181896,"componentType":5126,"count":284,"type":"VEC3","name":"accessorNormals"},{"bufferView":2,"byteOffset":59496,"componentType":5126,"count":284,"type":"VEC2","name":"accessorUVs"},{"bufferView":0,"byteOffset":51520,"componentType":5123,"count":204,"type":"SCALAR","name":"accessorIndices"},{"bufferView":1,"byteOffset":185304,"componentType":5126,"count":67,"max":[0.0352171324,0.0313248,-0.05027357],"min":[0.0343838,0.0289359465,-0.05610487],"type":"VEC3","name":"accessorPositions"},{"bufferView":1,"byteOffset":186108,"componentType":5126,"count":67,"type":"VEC3","name":"accessorNormals"},{"bufferView":2,"byteOffset":61768,"componentType":5126,"count":67,"type":"VEC2","name":"accessorUVs"},{"bufferView":0,"byteOffset":51928,"componentType":5123,"count":828,"type":"SCALAR","name":"accessorIndices"},{"bufferView":1,"byteOffset":186912,"componentType":5126,"count":284,"max":[0.0372730158,0.0318297148,-0.0468934849],"min":[0.0322730169,0.02667886,-0.05104592],"type":"VEC3","name":"accessorPositions"},{"bufferView":1,"byteOffset":190320,"componentType":5126,"count":284,"type":"VEC3","name":"accessorNormals"},{"bufferView":2,"byteOffset":62304,"componentType":5126,"count":284,"type":"VEC2","name":"accessorUVs"},{"bufferView":0,"byteOffset":53584,"componentType":5123,"count":828,"type":"SCALAR","name":"accessorIndices"},{"bufferView":1,"byteOffset":193728,"componentType":5126,"count":284,"max":[0.0443390943,0.03330718,-0.05541129],"min":[0.03933909,0.0281563252,-0.0595637225],"type":"VEC3","name":"accessorPositions"},{"bufferView":1,"byteOffset":197136,"componentType":5126,"count":284,"type":"VEC3","name":"accessorNormals"},{"bufferView":2,"byteOffset":64576,"componentType":5126,"count":284,"type":"VEC2","name":"accessorUVs"},{"bufferView":0,"byteOffset":55240,"componentType":5123,"count":204,"type":"SCALAR","name":"accessorIndices"},{"bufferView":1,"byteOffset":200544,"componentType":5126,"count":67,"max":[0.0422832146,0.0308498312,-0.0504097641],"min":[0.04144988,0.02846098,-0.05624106],"type":"VEC3","name":"accessorPositions"},{"bufferView":1,"byteOffset":201348,"componentType":5126,"count":67,"type":"VEC3","name":"accessorNormals"},{"bufferView":2,"byteOffset":66848,"componentType":5126,"count":67,"type":"VEC2","name":"accessorUVs"},{"bufferView":0,"byteOffset":55648,"componentType":5123,"count":828,"type":"SCALAR","name":"accessorIndices"},{"bufferView":1,"byteOffset":202152,"componentType":5126,"count":284,"max":[0.0443390943,0.0313547477,-0.0470296852],"min":[0.03933909,0.0262038931,-0.0511821173],"type":"VEC3","name":"accessorPositions"},{"bufferView":1,"byteOffset":205560,"componentType":5126,"count":284,"type":"VEC3","name":"accessorNormals"},{"bufferView":2,"byteOffset":67384,"componentType":5126,"count":284,"type":"VEC2","name":"accessorUVs"},{"bufferView":0,"byteOffset":57304,"componentType":5123,"count":828,"type":"SCALAR","name":"accessorIndices"},{"bufferView":1,"byteOffset":208968,"componentType":5126,"count":284,"max":[0.0499640927,0.03330718,-0.05541129],"min":[0.0449640937,0.0281563252,-0.0595637225],"type":"VEC3","name":"accessorPositions"},{"bufferView":1,"byteOffset":212376,"componentType":5126,"count":284,"type":"VEC3","name":"accessorNormals"},{"bufferView":2,"byteOffset":69656,"componentType":5126,"count":284,"type":"VEC2","name":"accessorUVs"},{"bufferView":0,"byteOffset":58960,"componentType":5123,"count":204,"type":"SCALAR","name":"accessorIndices"},{"bufferView":1,"byteOffset":215784,"componentType":5126,"count":67,"max":[0.047908213,0.0308498312,-0.0504097641],"min":[0.04707488,0.02846098,-0.05624106],"type":"VEC3","name":"accessorPositions"},{"bufferView":1,"byteOffset":216588,"componentType":5126,"count":67,"type":"VEC3","name":"accessorNormals"},{"bufferView":2,"byteOffset":71928,"componentType":5126,"count":67,"type":"VEC2","name":"accessorUVs"},{"bufferView":0,"byteOffset":59368,"componentType":5123,"count":828,"type":"SCALAR","name":"accessorIndices"},{"bufferView":1,"byteOffset":217392,"componentType":5126,"count":284,"max":[0.0499640927,0.0313547477,-0.0470296852],"min":[0.0449640937,0.0262038931,-0.0511821173],"type":"VEC3","name":"accessorPositions"},{"bufferView":1,"byteOffset":220800,"componentType":5126,"count":284,"type":"VEC3","name":"accessorNormals"},{"bufferView":2,"byteOffset":72464,"componentType":5126,"count":284,"type":"VEC2","name":"accessorUVs"},{"bufferView":0,"byteOffset":61024,"componentType":5123,"count":36,"type":"SCALAR","name":"accessorIndices"},{"bufferView":1,"byteOffset":224208,"componentType":5126,"count":24,"max":[0.9087166,0.0,0.8352781],"min":[-0.9087166,-0.01,-0.8352781],"type":"VEC3","name":"accessorPositions"},{"bufferView":1,"byteOffset":224496,"componentType":5126,"count":24,"type":"VEC3","name":"accessorNormals"},{"bufferView":2,"byteOffset":74736,"componentType":5126,"count":24,"type":"VEC2","name":"accessorUVs"}],"bufferViews":[{"buffer":0,"byteLength":61096,"name":"bufferViewScalar"},{"buffer":0,"byteOffset":61096,"byteLength":224784,"byteStride":12,"name":"bufferViewFloatVec3"},{"buffer":0,"byteOffset":285880,"byteLength":74928,"byteStride":8,"name":"bufferViewFloatVec2"}],"buffers":[{"uri":"dumbbells gltf.bin","byteLength":360808}],"materials":[{"pbrMetallicRoughness":{"baseColorTexture":{"index":0},"metallicFactor":0.0,"roughnessFactor":0.450053632},"name":"aluminum"},{"pbrMetallicRoughness":{"baseColorTexture":{"index":1},"metallicFactor":0.0,"roughnessFactor":0.450053632},"name":"plastic"},{"pbrMetallicRoughness":{"baseColorTexture":{"index":2},"metallicFactor":0.0,"roughnessFactor":0.450053632},"name":"metal"},{"pbrMetallicRoughness":{"baseColorTexture":{"index":3},"metallicFactor":0.0,"roughnessFactor":0.450053632},"name":"fabric"}],"textures":[{"sampler":0,"source":0,"name":"steel.jpg"},{"sampler":0,"source":1,"name":"dark grey.jpg"},{"sampler":0,"source":2,"name":"steel1.jpg"},{"sampler":0,"source":3,"name":"fabric.jpg"}],"images":[{"uri":"steel.jpg"},{"uri":"dark grey.jpg"},{"uri":"steel1.jpg"},{"uri":"fabric.jpg"}],"samplers":[{"magFilter":9729,"minFilter":9987}]}